<svg xmlns="http://www.w3.org/2000/svg"  viewBox="0 0 48 48" width="96px" height="96px"><path fill="#1565C0" d="M25,22h13l6,6V11c0-2.2-1.8-4-4-4H25c-2.2,0-4,1.8-4,4v7C21,20.2,22.8,22,25,22z"/><path fill="#2196F3" d="M23,19H10l-6,6V8c0-2.2,1.8-4,4-4h15c2.2,0,4,1.8,4,4v7C27,17.2,25.2,19,23,19z"/><path fill="#FFA726" d="M12 26A5 5 0 1 0 12 36 5 5 0 1 0 12 26zM36 26A5 5 0 1 0 36 36 5 5 0 1 0 36 26z"/><g><path fill="#607D8B" d="M20 42c0 0-2.2-4-8-4s-8 4-8 4v2h16V42zM44 42c0 0-2.2-4-8-4s-8 4-8 4v2h16V42z"/></g></svg>