<svg xmlns="http://www.w3.org/2000/svg"  viewBox="0 0 48 48" width="96px" height="96px" baseProfile="basic"><path fill="#ffb74d" d="M31,44v-4.602l2.602,0.5c2.898,0.602,5.598-1.5,5.797-4.398L40,29l2.898-1.199 c1-0.402,1.402-1.602,0.801-2.602L40,19c-0.602-7.602-4.898-15-16-15C12.602,4,7,12.398,7,21c0,3.699,1.301,6.898,3.301,9.602 c1.801,2.5,2.699,5.5,2.699,8.5V44H31z"/><path fill="#dd2c00" d="M18,21v4.213c0.848-0.064,1.466-0.64,1.986-0.64c0.787,0,1.068,0.862,1.068,1.926 s-0.281,1.926-1.068,1.926c-0.52,0-1.138-0.576-1.986-0.64V32h9c1.105,0,2-0.895,2-2v-9H18z"/><path fill="#388e3c" d="M18,14.215c-0.848-0.064-1.466-0.64-1.986-0.64c-0.787,0-1.068,0.862-1.068,1.926 s0.281,1.926,1.068,1.926c0.52,0,1.138-0.576,1.986-0.64V21h4.215c-0.064,0.848-0.64,1.466-0.64,1.986 c0,0.787,0.862,1.068,1.926,1.068s1.926-0.281,1.926-1.068c0-0.52-0.576-1.138-0.64-1.986H29v-9c0-1.105-0.895-2-2-2h-9V14.215z"/></svg>